<svg viewBox="0 0 263 36" xmlns="http://www.w3.org/2000/svg" fill-rule="evenodd" clip-rule="evenodd" stroke-linejoin="round" stroke-miterlimit="1.414"><path d="M43.36 5.003l-6.852 11.625 6.85 11.634 6.858-11.634L43.36 5.003z" fill="#273b81" fill-rule="nonzero"/><clipPath id="a"><path d="M43.343 6.068h5.296v21.07h-5.297z"/></clipPath><g clip-path="url(#a)"><path d="M42.493 6.068l6.146 10.535-6.147 10.535-6.145-10.535 6.145-10.535z" fill="#999"/></g><g fill="#273b81" fill-rule="nonzero" stroke="#273b81" stroke-width="1.72"><path d="M31.9 23.772c0-1.166-.265-2.21-.794-3.128-.53-.92-1.235-1.713-2.118-2.384-.882-.67-1.884-1.203-3.007-1.597-1.122-.394-2.26-.65-3.416-.766v-.175c2.18-.408 3.954-1.203 5.318-2.384 1.363-1.18 2.045-2.734 2.045-4.66 0-1.75-.53-3.193-1.588-4.33-1.06-1.138-2.407-1.984-4.044-2.538-1.026-.35-2.093-.59-3.2-.722-1.107-.13-2.27-.197-3.49-.197H1.39v.44c.865.086 1.54.21 2.02.37s.963.474 1.444.94c.192.176.345.46.457.854.113.394.21.84.29 1.335.08.494.136 1.012.168 1.552s.048 1.072.048 1.597c0 .874.008 1.646.024 2.317.016.67.024 1.327.024 1.97v6.78c0 .875-.008 1.728-.024 2.56-.016.83-.032 1.597-.048 2.297-.016.7-.024 1.254-.024 1.662 0 .467-.016.94-.048 1.422-.032.48-.088.94-.168 1.378-.08.438-.17.824-.265 1.16-.096.335-.225.59-.385.765-.45.468-1.035.832-1.757 1.095-.722.262-1.484.452-2.286.57v.436h16.603c1.41 0 2.87-.043 4.38-.13 1.507-.088 2.87-.336 4.09-.744.705-.233 1.41-.576 2.117-1.028.706-.452 1.348-1 1.925-1.64.578-.642 1.043-1.386 1.396-2.232.354-.846.53-1.794.53-2.844zM24.393 8.68c0 1.982-.746 3.644-2.238 4.986-1.492 1.342-3.682 2.085-6.57 2.23-.45.03-1.042.045-1.78.045H11.11v-4.2c0-1.107.008-2.274.024-3.5.016-1.224.04-2.347.072-3.368.032-.525.056-.948.072-1.268.016-.32.033-.59.05-.81.015-.22.04-.4.07-.547.033-.146.065-.306.097-.48.29-.088.706-.16 1.25-.22.547-.058 1.156-.087 1.83-.087 2.246 0 4.09.29 5.534.875 1.22.496 2.237 1.312 3.055 2.45.818 1.137 1.228 2.435 1.228 3.894zm1.876 15.574c0 1.487-.37 2.763-1.107 3.828-.738 1.064-1.78 1.917-3.13 2.56-1.025.495-2.084.8-3.175.918-1.09.116-2.1.175-3.032.175-1.09 0-1.925-.11-2.502-.328-.578-.22-1.01-.49-1.3-.81-.385-.466-.617-1.057-.697-1.772-.08-.714-.137-1.626-.17-2.734 0-.495-.007-1.085-.023-1.77-.016-.686-.024-1.437-.024-2.254v-5.47h4.668c.93 0 1.74.038 2.43.11.69.074 1.388.212 2.094.416.866.263 1.66.62 2.382 1.072.722.452 1.348.992 1.877 1.62.53.626.947 1.31 1.252 2.055.305.743.457 1.538.457 2.384zM91.105 32.39v-.436c-.834-.088-1.604-.248-2.31-.482-.706-.233-1.267-.64-1.685-1.225-.192-.262-.312-.75-.36-1.465-.05-.715-.073-1.495-.073-2.34 0-1.05-.008-2.013-.024-2.888s-.024-1.72-.024-2.538V8.066 6.71c0-.467.015-.926.047-1.378.032-.452.08-.86.145-1.225.064-.365.16-.65.288-.853.353-.584.9-1.03 1.637-1.335.738-.307 1.492-.504 2.262-.59V.89H76.522v.44c.738.028 1.476.137 2.214.327s1.395.678 1.973 1.465c.257.38.41.868.457 1.466.048.598.088 1.174.12 1.728.032.963.048 1.823.048 2.58v7.045h-19.01v-4.418c0-1.08.01-2.21.025-3.39.016-1.182.04-2.283.072-3.303.032-.672.193-1.226.482-1.664.288-.437.64-.78 1.058-1.028.417-.248.883-.43 1.396-.547.513-.116.995-.203 1.444-.26V.89H52.46v.44c.835.086 1.58.24 2.238.458.658.22 1.21.576 1.66 1.072.193.204.337.488.434.853.096.365.168.773.216 1.225.048.452.072.94.072 1.466v12.643c0 .875-.008 1.728-.024 2.56-.016.83-.032 1.597-.048 2.297-.016.7-.024 1.254-.024 1.662 0 .467-.016.955-.048 1.466-.032.51-.072.984-.12 1.422-.048.437-.112.824-.193 1.16-.08.334-.184.575-.313.72-.385.41-.946.752-1.684 1.03-.738.276-1.508.473-2.31.59v.437h14.197v-.436c-.674-.06-1.364-.22-2.07-.482-.705-.262-1.25-.64-1.636-1.137-.256-.32-.4-.875-.433-1.663-.032-.787-.048-1.604-.048-2.45v-9.406h19.01v6.913c0 1.02-.017 2.01-.05 2.974 0 .35-.007.714-.023 1.093-.016.38-.04.744-.072 1.094-.03.35-.07.657-.12.92-.047.262-.103.437-.168.525-.256.38-.786.722-1.588 1.028-.802.306-1.796.503-2.984.59v.438h14.775z"/></g><path fill="#999" d="M98.545 2.87h.75v27h-.75z"/><g fill="#999" fill-rule="nonzero"><path d="M117.438 3.486c0-.945-.462-2.016-1.49-2.646-.63-.4-1.723-.61-2.962-.61-.86 0-2.667.148-3.34.148h-1.406c-.294 0-.567.105-.567.273 0 .17.273.295.546.337 1.154.147 1.217.378 1.322.84.063.315.126 1.512.126 3.318 0 4.18-.105 6.447-.168 6.888-.084.735-.084 1.008-1.575 1.28-.23.043-.525.17-.525.337 0 .19.294.273.61.273.356 0 .86-.02 1.343-.02.966 0 2.982.083 3.57.083 1.05 0 2.75-.252 3.76-.966 1.007-.672 1.68-1.638 1.68-3.13 0-2.036-1.555-3.002-2.584-3.464-.064-.02-.106-.147-.043-.168.735-.4 1.7-1.134 1.7-2.772zm-1.764.147c0 .882-.483 1.722-1.155 2.163-.526.336-2.038.525-2.962.525-.19 0-.23-.167-.23-.272 0-3.38.083-4.326.125-4.662.02-.084.21-.315.252-.336.23-.084.777-.168.903-.168 1.953 0 3.066 1.05 3.066 2.75zm.714 6.468c0 2.017-1.428 3.256-3.192 3.256-.273 0-.987-.23-1.428-.714-.21-.19-.315-.546-.336-.693-.105-.736-.147-3.466-.084-4.222.042-.462.105-.546.147-.61.042-.04.44-.146.924-.146.776 0 1.658.105 2.225.4 1.008.503 1.743 1.47 1.743 2.73zM124.2.378c-1.407 0-2.226-.084-3.213-.084-.294 0-.588.105-.588.294 0 .168.167.252.608.357.924.21 1.134.462 1.176 1.386.042.61.02 1.05.02 3.55 0 2.604-.104 5.082-.167 5.964-.084 1.134-.483 1.28-1.533 1.533-.336.084-.588.19-.588.336 0 .23.23.273.63.273.798 0 1.26-.105 2.373-.105 3.422 0 6.593.17 6.824.17.105 0 .294-.17.357-.253.148-.19.736-2.08.757-2.247.042-.23-.02-.567-.168-.567-.127 0-.253.126-.484.588-.504.988-1.07 1.387-1.743 1.555-.462.126-1.743.147-1.995.147-.84 0-1.554-.084-1.91-.147-.148-.042-.316-.21-.4-.462-.126-.336-.21-1.134-.21-1.743 0-.903-.02-2.856.063-3.297 0-.042.106-.19.19-.19.567 0 1.407 0 2.08.043 1.28.063 1.364.126 1.658 1.092.063.23.21.462.357.462s.252-.23.23-.61c-.02-.42-.062-.713-.062-1.28 0-.504.02-.924.063-1.512.02-.168-.02-.462-.168-.462-.126 0-.252.126-.378.44-.378.967-.462 1.05-2.436 1.05h-1.365c-.106 0-.127-.125-.148-.21-.042-.314.02-4.262.063-4.787.042-.484.273-.59.315-.59.924-.04 2.436 0 2.982.085.672.105 1.134.315 1.407 1.428.04.21.146.504.335.504.19 0 .315-.252.315-.546 0-.42-.042-1.028-.042-1.994-.02-.105-.126-.252-.19-.23-.314.04-1.238.062-1.93.062H124.2zM142.05 3.78c0-1.008-.504-2.058-1.197-2.625-.84-.693-1.974-.882-3.423-.882-1.134 0-2.625.105-3.402.105h-1.176c-.462 0-.567.105-.567.252 0 .168.19.273.504.357.944.23 1.133.273 1.217 1.05.084.82.126 2.73.126 5.964 0 1.26-.084 3.487-.126 4.138-.063.798-.44.924-1.365 1.218-.273.105-.462.147-.462.315 0 .21.273.295.546.295.23 0 1.323-.084 1.7-.084 1.43 0 1.828.127 2.71.127.105 0 .504-.063.504-.273 0-.105-.147-.252-.504-.357-.987-.23-1.218-.525-1.26-1.407-.063-1.218-.105-3.885-.084-4.242 0-.063.105-.252.252-.252.63 0 1.407.19 1.49.273.127.083.547.608.84 1.05.84 1.322 1.912 2.94 2.647 3.947.61.777 1.807 1.365 2.794 1.365.44 0 .903-.042 1.155-.147.125-.063.293-.147.293-.273 0-.084-.168-.252-.336-.294-.924-.19-1.49-.567-2.058-1.24-1.282-1.427-3.046-4.262-3.256-4.766-.042-.084.02-.273.084-.315.147-.105.546-.294.65-.357 1.03-.63 1.702-1.806 1.702-2.94zm-1.87.042c0 1.323-.818 2.247-1.385 2.604-.294.19-1.407.546-2.625.546-.126 0-.294-.147-.336-.315-.063-.357 0-4.41.063-5.145 0-.084.147-.4.252-.44.23-.106.902-.148 1.007-.148.672 0 1.575.315 2.08.798.608.61.944 1.596.944 2.1zM153.264 0c-2.037 0-4.053.714-5.376 1.89-1.722 1.512-2.373 3.423-2.373 5.292 0 2.52 1.197 4.242 2.163 5.166 1.28 1.155 3.234 1.91 5.586 1.91.693 0 1.995-.125 2.898-.377.82-.23 1.533-.398 1.91-.503.232-.063.316-.21.316-.294 0-.105.02-.168-.357-.378-.104-.063-.293-.273-.293-.61 0-.86.02-2.372.105-2.603.084-.23.126-.462.756-.65.252-.085.483-.21.483-.358 0-.168-.23-.273-.566-.273-.672 0-1.386.085-1.89.085-.61 0-2.142-.084-2.52-.084-.4 0-.63.148-.63.295 0 .168.23.336.546.357 1.575.105 1.743.504 1.89.987.042.25.063 1.448.063 2.183 0 .273-.273.987-.44 1.092-.59.378-1.64.504-1.89.504-1.954 0-3.97-1.01-5.083-2.9-.61-1.007-.945-2.33-.945-3.82 0-3.32 2.12-6.26 5.712-6.26 1.68 0 2.898.736 3.36 1.303.315.4.588.903.798 1.47.126.315.252.483.378.483.147 0 .273-.19.273-.462 0-.798-.273-1.806-.294-2.31 0-.336-.168-.504-.252-.504-.23-.063-.378-.084-.798-.168-.882-.19-1.995-.462-3.528-.462zM164.75.378c-1.406 0-2.225-.084-3.212-.084-.294 0-.588.105-.588.294 0 .168.168.252.61.357.923.21 1.133.462 1.175 1.386.042.61.02 1.05.02 3.55 0 2.604-.104 5.082-.167 5.964-.084 1.134-.483 1.28-1.533 1.533-.336.084-.588.19-.588.336 0 .23.23.273.63.273.798 0 1.26-.105 2.373-.105 3.423 0 6.594.17 6.825.17.105 0 .294-.17.357-.253.147-.19.735-2.08.756-2.247.042-.23-.02-.567-.168-.567-.126 0-.252.126-.483.588-.504.988-1.07 1.387-1.743 1.555-.462.126-1.743.147-1.995.147-.84 0-1.555-.084-1.912-.147-.147-.042-.315-.21-.4-.462-.125-.336-.21-1.134-.21-1.743 0-.903-.02-2.856.064-3.297 0-.042.105-.19.19-.19.566 0 1.406 0 2.078.043 1.28.063 1.365.126 1.66 1.092.062.23.21.462.356.462.147 0 .252-.23.23-.61-.02-.42-.062-.713-.062-1.28 0-.504.02-.924.063-1.512.02-.168-.02-.462-.168-.462-.127 0-.253.126-.38.44-.377.967-.46 1.05-2.435 1.05h-1.365c-.105 0-.126-.125-.147-.21-.042-.314.02-4.262.063-4.787.042-.484.273-.59.315-.59.925-.04 2.437 0 2.983.085.672.105 1.134.315 1.407 1.428.042.21.147.504.336.504.19 0 .315-.252.315-.546 0-.42-.04-1.028-.04-1.994-.022-.105-.127-.252-.19-.23-.315.04-1.24.062-1.932.062h-3.087zM182.6 3.78c0-1.008-.503-2.058-1.196-2.625-.84-.693-1.974-.882-3.423-.882-1.133 0-2.624.105-3.4.105h-1.177c-.462 0-.567.105-.567.252 0 .168.19.273.504.357.945.23 1.134.273 1.218 1.05.084.82.126 2.73.126 5.964 0 1.26-.084 3.487-.126 4.138-.063.798-.44.924-1.365 1.218-.273.105-.462.147-.462.315 0 .21.274.295.547.295.23 0 1.323-.084 1.7-.084 1.43 0 1.828.127 2.71.127.105 0 .504-.063.504-.273 0-.105-.146-.252-.503-.357-.987-.23-1.218-.525-1.26-1.407-.063-1.218-.105-3.885-.084-4.242 0-.063.105-.252.252-.252.63 0 1.407.19 1.49.273.127.083.547.608.84 1.05.84 1.322 1.912 2.94 2.647 3.947.61.777 1.806 1.365 2.793 1.365.44 0 .903-.042 1.155-.147.126-.063.294-.147.294-.273 0-.084-.168-.252-.336-.294-.924-.19-1.49-.567-2.058-1.24-1.28-1.427-3.045-4.262-3.255-4.766-.042-.084.02-.273.084-.315.146-.105.545-.294.65-.357 1.03-.63 1.7-1.806 1.7-2.94zm-1.868.042c0 1.323-.82 2.247-1.386 2.604-.294.19-1.407.546-2.625.546-.125 0-.293-.147-.335-.315-.063-.357 0-4.41.063-5.145 0-.084.147-.4.252-.44.23-.106.903-.148 1.008-.148.672 0 1.575.315 2.08.798.608.61.944 1.596.944 2.1zM190.15 7.12l3.767 3.84 3.696-3.72-3.792-3.815-3.67 3.696zM111.39 25.174c-.02-.357 0-3.13.063-3.822.063-.882.126-1.197 1.113-1.386.44-.084.61-.19.61-.4 0-.125-.232-.23-.673-.23-.483 0-1.113.042-1.995.042-.546 0-1.323-.042-1.91-.042-.337 0-.61.084-.61.23 0 .17.147.316.588.4.882.19 1.008.483 1.05 1.197.042.924 0 2.856 0 3.234 0 3.423-.126 5.796-.19 6.657-.083.82-.25 1.03-1.322 1.302-.23.063-.483.19-.483.4 0 .125.17.21.63.21.715 0 1.597-.085 2.08-.085.756 0 2.037.085 2.184.085.273 0 .63-.042.61-.21-.022-.21-.17-.294-.63-.42-.883-.273-1.114-.65-1.135-1.638 0-.61-.043-3.297 0-3.843 0-.168.167-.357.23-.357.42-.042 4.557.02 7.812.02.168 0 .252.064.252.442 0 1.05-.042 2.498-.084 3.38-.063 1.49-.168 1.722-1.302 2.058-.23.063-.462.19-.462.378 0 .19.21.23.525.23.42 0 1.996-.125 2.458-.125.65 0 1.407.064 1.743.064.4 0 .59-.063.59-.23 0-.148-.19-.295-.484-.4-.945-.273-1.155-.357-1.197-1.176 0-.315-.085-2.184-.085-3.108 0-3.57.063-5.86.168-6.93.042-.61.21-.987 1.092-1.197.44-.105.61-.252.61-.357 0-.168-.253-.252-.59-.252-.23 0-1.196.063-1.91.063-.525 0-1.87-.042-2.142-.042-.44 0-.65.084-.65.23 0 .19.23.316.524.4.945.252 1.092.42 1.155 1.197.063.82.063 3.57.042 3.843-.042.42-.105.546-.23.546-3.718 0-6.574.064-7.813.064-.146 0-.21-.02-.23-.42zM131.487 19c-.105 0-.19.084-.336.252-.146.23-.44.777-.63 1.03-.04.062-.04.104-.04.167 0 .104-.043.272-.127.44-.924 2.268-3.318 8.61-3.8 9.68-.61 1.366-.883 1.43-1.933 1.786-.315.105-.462.294-.462.42s.105.21.483.21c.316 0 1.408-.105 2.185-.105.777 0 1.302.064 1.66.064.272 0 .587-.063.587-.273 0-.146-.21-.272-.567-.377-.945-.294-1.03-.65-1.03-.903 0-.525.547-2.31 1.093-3.675.042-.063.147-.168.23-.168.442-.063 2.29-.084 3.445-.084.61 0 .693.126.714.21.483 1.344 1.008 2.73 1.176 3.59.084.442.168.862-.84 1.072-.378.063-.504.23-.504.336 0 .106.125.253.65.253s.82-.042 1.49-.042c.925 0 1.954.106 2.647.106.525 0 .672-.126.672-.273 0-.147-.17-.252-.505-.357-.945-.23-1.28-.4-1.974-2.12-.356-.862-1.93-5.02-3.023-8.086-.4-1.092-.756-2.037-.924-2.604-.168-.462-.252-.546-.336-.546zm.945 7.518c-.693.063-2.436.042-3.276.063-.084 0-.126-.062-.105-.146.17-.65 1.26-3.59 1.64-4.6.062-.146.104-.125.167 0 .19.295 1.28 3.445 1.638 4.516.02.063-.042.168-.063.168zM148.896 22.78c0-1.008-.504-2.058-1.197-2.625-.84-.693-1.975-.882-3.424-.882-1.134 0-2.625.105-3.402.105h-1.176c-.462 0-.567.105-.567.252 0 .168.19.273.505.357.945.23 1.134.273 1.218 1.05.084.82.126 2.73.126 5.964 0 1.26-.085 3.487-.127 4.138-.063.798-.44.924-1.365 1.218-.273.105-.462.147-.462.315 0 .21.273.295.546.295.23 0 1.323-.084 1.7-.084 1.43 0 1.828.127 2.71.127.105 0 .504-.063.504-.273 0-.105-.147-.252-.504-.357-.987-.23-1.218-.525-1.26-1.407-.063-1.218-.105-3.885-.084-4.242 0-.063.105-.252.252-.252.63 0 1.407.19 1.49.273.127.083.547.608.84 1.05.84 1.322 1.912 2.94 2.647 3.947.61.777 1.806 1.365 2.793 1.365.44 0 .903-.042 1.155-.147.126-.063.294-.147.294-.273 0-.084-.17-.252-.337-.294-.924-.19-1.49-.567-2.058-1.24-1.28-1.427-3.045-4.262-3.255-4.766-.042-.084.02-.273.084-.315.147-.105.546-.294.65-.357 1.03-.63 1.702-1.806 1.702-2.94zm-1.87.042c0 1.323-.818 2.247-1.385 2.604-.293.19-1.406.546-2.624.546-.126 0-.294-.147-.336-.315-.063-.357 0-4.41.063-5.145 0-.084.147-.4.252-.44.23-.106.903-.148 1.008-.148.672 0 1.575.315 2.08.798.608.61.944 1.596.944 2.1zM162.147 22.78c0-1.008-.504-2.058-1.197-2.625-.84-.693-1.974-.882-3.423-.882-1.134 0-2.625.105-3.402.105h-1.176c-.463 0-.568.105-.568.252 0 .168.19.273.504.357.945.23 1.134.273 1.218 1.05.084.82.126 2.73.126 5.964 0 1.26-.084 3.487-.126 4.138-.063.798-.44.924-1.365 1.218-.274.105-.463.147-.463.315 0 .21.273.295.546.295.23 0 1.323-.084 1.7-.084 1.43 0 1.828.127 2.71.127.105 0 .504-.063.504-.273 0-.105-.147-.252-.504-.357-.987-.23-1.218-.525-1.26-1.407-.063-1.218-.105-3.885-.084-4.242 0-.063.104-.252.25-.252.63 0 1.408.19 1.492.273.126.083.546.608.84 1.05.84 1.322 1.91 2.94 2.646 3.947.61.777 1.806 1.365 2.793 1.365.442 0 .904-.042 1.156-.147.126-.063.294-.147.294-.273 0-.084-.168-.252-.336-.294-.924-.19-1.49-.567-2.058-1.24-1.28-1.427-3.045-4.262-3.255-4.766-.04-.084.022-.273.085-.315.147-.105.546-.294.65-.357 1.03-.63 1.702-1.806 1.702-2.94zm-1.87.042c0 1.323-.818 2.247-1.385 2.604-.294.19-1.407.546-2.625.546-.126 0-.294-.147-.336-.315-.062-.357 0-4.41.064-5.145 0-.084.147-.4.252-.44.23-.106.903-.148 1.008-.148.672 0 1.575.315 2.08.798.608.61.944 1.596.944 2.1zM167.46 26.035c0 1.785-.042 3.97-.105 4.704-.084.986-.168 1.3-1.218 1.532-.42.084-.63.21-.63.357 0 .146.147.293.546.293.777 0 .966-.042 1.596-.042.566 0 2.057.127 3.128.127.252 0 .567-.105.567-.273 0-.147-.168-.294-.546-.357-1.366-.273-1.47-.672-1.534-1.806-.042-.67-.063-1.973-.063-3.128 0-4.116.02-5.48.126-6.174.083-.567.062-1.092 1.28-1.344.336-.063.546-.19.546-.357 0-.168-.19-.252-.525-.252-.734 0-1.217.063-2.246.063-.693 0-1.743-.063-2.29-.063-.293 0-.524.084-.524.252 0 .147.126.294.588.378 1.176.21 1.176.525 1.24 1.49.04.694.062 3.298.062 4.6zM177.645 19c-1.47 0-2.457.44-3.108 1.03-.714.63-1.155 1.574-1.155 2.56 0 1.786 1.26 3.004 3.045 4.16 2.205 1.406 2.625 2.35 2.625 3.233 0 1.512-1.092 2.54-2.54 2.54-.8 0-2.185-.524-2.73-1.68-.295-.65-.61-1.196-.778-1.196-.084 0-.294.315-.294.4 0 .335.21 1.26.315 1.973 0 .084.273.546.483.672.65.315 2.08.546 2.75.546.946 0 2.185-.315 2.857-.756 1.134-.735 1.722-1.91 1.722-2.96 0-1.89-1.28-2.983-2.898-4.075-1.85-1.24-2.92-1.89-2.92-3.38 0-1.408 1.008-2.458 2.415-2.458.61 0 1.113.188 1.49.482.21.126.778.756 1.03 1.512.084.294.336.44.504.44.146 0 .146-.21.146-.566 0-.084-.168-1.302-.21-1.7 0-.043-.126-.358-.252-.4-.378-.063-1.47-.378-2.5-.378zM189.91 19c-1.47 0-3.277.63-4.306 1.47-1.596 1.28-2.73 3.066-2.73 5.65 0 1.805.63 3.506 1.743 4.745 1.28 1.47 3.318 2.394 5.46 2.394 1.07 0 2.814-.295 4.137-1.22 1.533-1.09 2.982-3.15 2.982-6.09 0-3.99-3.255-6.95-7.287-6.95zm-.463.693c.966 0 2.29.44 3.15 1.134 1.554 1.26 2.54 3.465 2.54 5.754 0 2.5-.944 4.2-1.784 4.957-.23.252-1.03 1.008-2.772 1.008-3.36 0-5.67-3.59-5.67-6.72 0-2.457.715-4.032 1.64-4.935.734-.735 2.015-1.197 2.897-1.197zM198.54 19.567c0 .168.23.273.462.336.945.252 1.176.273 1.764.966.042.062.147.25.147 1.007 0 1.743-.294 6.783-.4 8.484-.083 1.555-.482 1.64-1.47 1.975-.21.063-.42.19-.42.357 0 .21.253.23.547.23.357 0 .903-.04 1.365-.04.756 0 1.638.104 2.247.104.4 0 .672-.063.672-.273 0-.126-.084-.273-.525-.378-1.01-.294-1.24-.61-1.324-1.575-.042-.65.02-3.885.02-5.775.022-1.638.085-2.226.106-2.793 0-.105.147-.147.23-.042 1.89 2.268 5.524 6.363 7.498 8.715.567.693.945 1.24 1.302 1.68.19.252.65.672.945.672.19 0 .294-.23.294-.44 0-.337-.146-1.912-.146-2.794 0-3.612.19-7.75.23-8.505.064-1.134.442-1.323 1.345-1.533.377-.105.503-.294.503-.42 0-.168-.126-.23-.483-.23-.546 0-1.218.083-1.974.083-.672 0-1.26-.02-1.806-.02-.252 0-.546.04-.546.188 0 .168.147.336.567.462 1.156.336 1.303.84 1.324 1.28.063.652.105 1.387.105 2.1 0 3.025.062 5.293-.043 5.965 0 .063-.084.273-.21.147-1.407-1.533-6.027-6.573-6.972-7.77-.82-1.07-1.344-1.7-1.66-2.08-.125-.125-.314-.272-.44-.272-1.07 0-2.1-.063-2.562-.063-.483 0-.693.084-.693.252zM216.306 30.53c-.4 0-.987.272-.987.965 0 .61.566.798.797.882.294.105.61.315.61.672 0 .755-.82 1.28-1.24 1.532-.147.063-.378.147-.378.336 0 .147.23.19.377.19.42 0 2.415-.736 2.415-2.626 0-1.24-.798-1.953-1.596-1.953zM230.313 19c-.105 0-.19.084-.336.252-.147.23-.44.777-.63 1.03-.042.062-.042.104-.042.167 0 .104-.042.272-.126.44-.925 2.268-3.32 8.61-3.802 9.68-.61 1.366-.882 1.43-1.932 1.786-.315.105-.462.294-.462.42s.105.21.483.21c.315 0 1.407-.105 2.184-.105.778 0 1.303.064 1.66.064.273 0 .588-.063.588-.273 0-.146-.21-.272-.567-.377-.944-.294-1.028-.65-1.028-.903 0-.525.546-2.31 1.092-3.675.042-.063.147-.168.23-.168.442-.063 2.29-.084 3.445-.084.608 0 .692.126.713.21.483 1.344 1.008 2.73 1.176 3.59.083.442.167.862-.84 1.072-.38.063-.505.23-.505.336 0 .106.126.253.65.253.526 0 .82-.042 1.492-.042.924 0 1.953.106 2.646.106.525 0 .672-.126.672-.273 0-.147-.168-.252-.504-.357-.944-.23-1.28-.4-1.973-2.12-.357-.862-1.932-5.02-3.024-8.086-.4-1.092-.756-2.037-.924-2.604-.17-.462-.253-.546-.337-.546zm.945 7.518c-.693.063-2.436.042-3.276.063-.084 0-.126-.062-.105-.146.168-.65 1.26-3.59 1.638-4.6.063-.146.105-.125.168 0 .19.295 1.28 3.445 1.638 4.516.022.063-.04.168-.062.168zM245.853 23.39c0 2.414-1.554 3.4-2.667 3.4h-.525c-.167 0-.25.106-.25.19 0 .126.104.23.356.336.336.126.882.147 1.113.147.902 0 1.868-.462 2.414-.924.61-.526 1.47-1.387 1.47-3.256 0-.693-.21-1.89-1.218-2.856-.777-.735-2.016-1.24-3.927-1.24-1.05 0-2.668.17-3.508.17-.19 0-.546-.022-.693 0-.274.02-.484.125-.484.293 0 .127.23.253.65.316 1.177.168 1.156.462 1.177 1.218.02.672.063 5.124.063 5.817 0 1.05-.042 2.794-.105 3.802-.062.882-.293 1.28-1.47 1.554-.21.063-.42.19-.42.336 0 .19.232.294.59.294.65 0 1.51-.084 2.12-.084.924 0 1.68.084 2.205.084.315 0 .693-.063.693-.252 0-.19-.168-.294-.567-.4-1.07-.314-1.238-.482-1.26-1.847 0-.525-.04-2.29-.04-4.2.02-2.415.02-5.02.04-5.46.022-.504.127-.756.21-.82.17-.104.38-.188.61-.188 1.974 0 3.423 1.658 3.423 3.57zM257.592 19c-1.932 0-3.885.462-5.69 1.932-.883.735-2.31 2.646-2.31 5.04s.965 3.906 1.763 4.83c.84.987 3.003 2.457 5.964 2.457 1.784 0 3.485-.442 3.82-.59.21-.104.568-.356.652-.545.294-.483.777-1.596.84-2.12.042-.232.02-.694-.19-.694-.083 0-.167.106-.44.547-.504.882-1.03 1.554-1.953 2.037-.862.504-1.89.567-2.29.567-1.7 0-4.137-.944-5.313-3.36-.462-.923-.735-2.057-.735-3.464 0-3.17 2.163-5.964 5.544-5.964 1.134 0 2.205.23 3.36 1.092.273.21.672.84.86 1.575.106.314.232.545.337.545.168 0 .336-.252.315-.693-.042-.462-.147-1.386-.147-1.827 0-.483-.21-.63-.314-.63-.315-.042-1.05-.315-1.596-.4-.798-.188-1.743-.335-2.478-.335z"/></g></svg>